<svg width="140" height="56" viewBox="0 0 140 56" fill="none" xmlns="http://www.w3.org/2000/svg">
<path d="M31.6827 16H21.934C21.8864 16 21.8409 16.02 21.8088 16.0552L13.0445 25.6374C13.0159 25.6687 13 25.7096 13 25.752V34.876C13 34.9697 13.076 35.0457 13.1698 35.0457H16.6197C17.3697 35.0457 17.9778 35.6538 17.9778 36.4038V39.8302C17.9778 39.924 18.0538 40 18.1475 40H29.3152C29.36 40 29.403 39.9823 29.4348 39.9507L36.9499 32.4849C36.982 32.453 37 32.4097 37 32.3645V28.384C37 28.1965 36.848 28.0445 36.6605 28.0445H32.609C32.4215 28.0445 32.2695 28.1965 32.2695 28.384V35.077C32.2695 35.1717 32.192 35.2481 32.0973 35.2467L19.5532 35.0651C18.8109 35.0544 18.2148 34.4496 18.2148 33.7072V22.6387C18.2148 21.8886 18.8229 21.2806 19.5729 21.2806H31.6827C31.8702 21.2806 32.0222 21.1286 32.0222 20.9411V16.3395C32.0222 16.152 31.8702 16 31.6827 16Z" fill="white"/>
<path d="M50.5206 36.3465C49.0622 36.3465 47.8132 36.0072 46.7736 35.3286C45.7339 34.6355 44.9397 33.6897 44.391 32.4912C43.8423 31.2783 43.568 29.8921 43.568 28.3326C43.568 26.7876 43.8423 25.4086 44.391 24.1957C44.9542 22.9828 45.7628 22.0298 46.8169 21.3367C47.871 20.6292 49.1344 20.2754 50.6072 20.2754C51.8635 20.2754 52.9248 20.4992 53.7911 20.9468C54.672 21.3945 55.3651 22.0081 55.8704 22.7879C56.3903 23.5676 56.7512 24.4556 56.9534 25.452L54.5059 25.5819C54.3326 24.6433 53.9428 23.8853 53.3363 23.3077C52.7298 22.7157 51.8202 22.4197 50.6072 22.4197C49.5387 22.4197 48.6651 22.6868 47.9865 23.2211C47.3078 23.7553 46.8024 24.4701 46.4703 25.3653C46.1527 26.2606 45.9938 27.2497 45.9938 28.3326C45.9938 29.4589 46.1527 30.4625 46.4703 31.3433C46.8024 32.2241 47.3078 32.9244 47.9865 33.4442C48.6796 33.9496 49.5604 34.2023 50.6289 34.2023C51.4664 34.2023 52.1884 34.0218 52.7948 33.6608C53.4013 33.2998 53.8706 32.8089 54.2027 32.188C54.5492 31.5671 54.7369 30.8812 54.7658 30.1304H50.6506V28.1594H56.9967V36H55.3939L55.2423 32.5345L55.5455 32.7944C55.3867 33.4875 55.0618 34.1012 54.5709 34.6355C54.0799 35.1697 53.4807 35.5885 52.7732 35.8917C52.0801 36.1949 51.3292 36.3465 50.5206 36.3465ZM62.9496 36.2599C61.7511 36.2599 60.7909 35.9856 60.0689 35.4369C59.3614 34.8882 59.0076 34.1156 59.0076 33.1193C59.0076 32.123 59.3036 31.3505 59.8957 30.8018C60.5021 30.2386 61.4335 29.8343 62.6897 29.5889L66.6533 28.8308C66.6533 27.9356 66.444 27.2713 66.0252 26.8381C65.6065 26.3905 64.9856 26.1667 64.1625 26.1667C63.4261 26.1667 62.8485 26.3328 62.4298 26.6649C62.011 26.9825 61.7223 27.459 61.5634 28.0944L59.2026 27.9428C59.4192 26.7876 59.9534 25.8779 60.8054 25.2137C61.6717 24.5495 62.7908 24.2174 64.1625 24.2174C65.722 24.2174 66.906 24.6361 67.7146 25.4736C68.5377 26.2967 68.9492 27.459 68.9492 28.9608V33.4442C68.9492 33.7186 68.9925 33.9135 69.0792 34.029C69.1802 34.1301 69.3391 34.1806 69.5557 34.1806H69.9672V36C69.895 36.0144 69.7795 36.0289 69.6207 36.0433C69.4618 36.0578 69.2958 36.065 69.1225 36.065C68.6315 36.065 68.2056 35.9856 67.8446 35.8267C67.498 35.6679 67.2381 35.408 67.0649 35.047C66.8916 34.6716 66.805 34.1734 66.805 33.5525L67.0432 33.6608C66.9277 34.1662 66.675 34.6138 66.2851 35.0037C65.9097 35.3935 65.426 35.704 64.834 35.935C64.2564 36.1516 63.6283 36.2599 62.9496 36.2599ZM63.3178 34.4405C64.0109 34.4405 64.6029 34.3106 65.0939 34.0507C65.5848 33.7763 65.9675 33.4009 66.2418 32.9244C66.5162 32.4479 66.6533 31.9064 66.6533 31.2999V30.5635L63.2745 31.2133C62.5814 31.3433 62.0905 31.5526 61.8017 31.8414C61.5273 32.1158 61.3901 32.4695 61.3901 32.9027C61.3901 33.3937 61.5562 33.7763 61.8883 34.0507C62.2349 34.3106 62.7114 34.4405 63.3178 34.4405ZM76.2612 36.2599C75.1783 36.2599 74.2614 36.0939 73.5105 35.7617C72.7741 35.4296 72.2037 34.9748 71.7994 34.3972C71.3951 33.8052 71.1641 33.1265 71.1063 32.3613L73.4672 32.253C73.5827 32.8883 73.8571 33.3937 74.2902 33.7691C74.7234 34.1445 75.3804 34.3322 76.2612 34.3322C76.9832 34.3322 77.5536 34.2167 77.9723 33.9857C78.3911 33.7547 78.6004 33.3865 78.6004 32.8811C78.6004 32.6067 78.5282 32.3757 78.3838 32.188C78.2539 31.9858 77.994 31.8198 77.6041 31.6898C77.2142 31.5454 76.6367 31.4082 75.8714 31.2783C74.7306 31.0617 73.8354 30.809 73.1856 30.5202C72.5358 30.2314 72.0738 29.8632 71.7994 29.4156C71.5251 28.968 71.3879 28.4265 71.3879 27.7912C71.3879 26.7371 71.7778 25.8779 72.5575 25.2137C73.3517 24.5495 74.4924 24.2174 75.9797 24.2174C76.976 24.2174 77.8135 24.3907 78.4921 24.7372C79.1708 25.0693 79.6978 25.5242 80.0733 26.1017C80.4631 26.6649 80.7086 27.3002 80.8097 28.0077L78.4488 28.1377C78.3766 27.7334 78.2322 27.3868 78.0156 27.0981C77.8135 26.7948 77.5391 26.5638 77.1926 26.405C76.846 26.2317 76.4345 26.1451 75.958 26.1451C75.2216 26.1451 74.6729 26.2894 74.3119 26.5782C73.9509 26.867 73.7704 27.2425 73.7704 27.7045C73.7704 28.0511 73.8498 28.3326 74.0087 28.5492C74.1819 28.7658 74.4563 28.9463 74.8317 29.0907C75.2072 29.2207 75.7053 29.3362 76.3262 29.4373C77.5247 29.6394 78.4633 29.8921 79.1419 30.1953C79.8206 30.4841 80.2971 30.8451 80.5714 31.2783C80.8458 31.7115 80.9829 32.2385 80.9829 32.8594C80.9829 33.5814 80.7808 34.1951 80.3765 34.7004C79.9722 35.2058 79.4163 35.5957 78.7087 35.87C78.0012 36.13 77.1854 36.2599 76.2612 36.2599ZM83.5966 39.2489V37.3645H85.0045C85.3943 37.3645 85.6831 37.3068 85.8708 37.1913C86.0585 37.0757 86.2029 36.8808 86.304 36.6065L86.6722 35.6535H85.9575L81.7989 24.4773H84.2247L87.387 33.5308L90.3976 24.4773H92.8451L88.2533 37.3429C88.0223 38.0071 87.6758 38.4908 87.2137 38.794C86.7661 39.0973 86.138 39.2489 85.3293 39.2489H83.5966ZM97.6171 36.2599C96.4186 36.2599 95.4584 35.9856 94.7364 35.4369C94.0288 34.8882 93.6751 34.1156 93.6751 33.1193C93.6751 32.123 93.9711 31.3505 94.5631 30.8018C95.1696 30.2386 96.1009 29.8343 97.3571 29.5889L101.321 28.8308C101.321 27.9356 101.111 27.2713 100.693 26.8381C100.274 26.3905 99.653 26.1667 98.83 26.1667C98.0936 26.1667 97.516 26.3328 97.0972 26.6649C96.6785 26.9825 96.3897 27.459 96.2309 28.0944L93.87 27.9428C94.0866 26.7876 94.6209 25.8779 95.4728 25.2137C96.3392 24.5495 97.4582 24.2174 98.83 24.2174C100.389 24.2174 101.573 24.6361 102.382 25.4736C103.205 26.2967 103.617 27.459 103.617 28.9608V33.4442C103.617 33.7186 103.66 33.9135 103.747 34.029C103.848 34.1301 104.007 34.1806 104.223 34.1806H104.635V36C104.562 36.0144 104.447 36.0289 104.288 36.0433C104.129 36.0578 103.963 36.065 103.79 36.065C103.299 36.065 102.873 35.9856 102.512 35.8267C102.165 35.6679 101.906 35.408 101.732 35.047C101.559 34.6716 101.472 34.1734 101.472 33.5525L101.711 33.6608C101.595 34.1662 101.342 34.6138 100.953 35.0037C100.577 35.3935 100.093 35.704 99.5014 35.935C98.9238 36.1516 98.2957 36.2599 97.6171 36.2599ZM97.9853 34.4405C98.6784 34.4405 99.2704 34.3106 99.7613 34.0507C100.252 33.7763 100.635 33.4009 100.909 32.9244C101.184 32.4479 101.321 31.9064 101.321 31.2999V30.5635L97.9419 31.2133C97.2488 31.3433 96.7579 31.5526 96.4691 31.8414C96.1948 32.1158 96.0576 32.4695 96.0576 32.9027C96.0576 33.3937 96.2236 33.7763 96.5558 34.0507C96.9023 34.3106 97.3788 34.4405 97.9853 34.4405ZM106.573 36V24.4773H108.674L108.761 27.5312L108.566 27.4663C108.725 26.4266 109.042 25.6686 109.519 25.192C110.01 24.7155 110.667 24.4773 111.49 24.4773H112.594V26.5349H111.49C110.912 26.5349 110.428 26.6288 110.039 26.8165C109.649 27.0042 109.353 27.293 109.151 27.6829C108.963 28.0727 108.869 28.5781 108.869 29.199V36H106.573ZM118.324 36.2599C117.342 36.2599 116.483 36.0144 115.746 35.5235C115.024 35.0326 114.468 34.3395 114.078 33.4442C113.703 32.5345 113.515 31.466 113.515 30.2386C113.515 29.0113 113.71 27.95 114.1 27.0547C114.49 26.1451 115.046 25.4447 115.768 24.9538C116.49 24.4629 117.342 24.2174 118.324 24.2174C119.118 24.2174 119.825 24.3834 120.446 24.7155C121.067 25.0477 121.536 25.5097 121.854 26.1017V20.622H124.15V36H122.006L121.941 34.2673C121.623 34.8882 121.139 35.3791 120.49 35.7401C119.854 36.0866 119.132 36.2599 118.324 36.2599ZM118.93 34.2673C119.551 34.2673 120.078 34.1084 120.511 33.7908C120.944 33.4731 121.276 33.011 121.508 32.4046C121.739 31.7981 121.854 31.0761 121.854 30.2386C121.854 29.3723 121.739 28.6431 121.508 28.0511C121.276 27.4446 120.944 26.9898 120.511 26.6865C120.078 26.3689 119.551 26.21 118.93 26.21C118.006 26.21 117.27 26.571 116.721 27.293C116.172 28.0005 115.898 28.9824 115.898 30.2386C115.898 31.4804 116.172 32.4623 116.721 33.1843C117.27 33.9063 118.006 34.2673 118.93 34.2673Z" fill="white"/>
</svg>
